# xmcd CD database file
#
# Track frame offsets:
#	150
#	9069
#	24603
#	50832
#	69576
#	83858
#	104162
#	124729
#	148873
#	172057
#	186759
#	209246
#	221585
#	239977
#	262996
#
# Disc length: 3879 seconds
#
# Revision: 0
# Processed by: cddbd v1.5.2PL0 Copyright (c) Steve Scherf et al.
# Submitted via: CDex 1.76
#
DISCID=ef0f250f
DTITLE=Austin O'Brien - The Composible Dream Quartet
DYEAR=2009
DGENRE=Jazz
TTITLE0=Idg Theme
TTITLE1=Eyes of a Child
TTITLE2=Matador
TTITLE3=Brown's way
TTITLE4=In a time of a dance
TTITLE5=I get a kick out of you
TTITLE6=La belle vie , The good life
TTITLE7=Rain falling no cab
TTITLE8=My foolish heart
TTITLE9=Take the A train
TTITLE10=Hammered
TTITLE11=I've got a world that swings
TTITLE12=A girl I have never seen
TTITLE13=You and the night and the music
TTITLE14=Impossible dream
EXTD=YEAR: 2009
EXTT0=
EXTT1=
EXTT2=
EXTT3=
EXTT4=
EXTT5=
EXTT6=
EXTT7=
EXTT8=
EXTT9=
EXTT10=
EXTT11=
EXTT12=
EXTT13=
EXTT14=
PLAYORDER=
